<?xml version="1.0" encoding="UTF-8" standalone="no"?><!DOCTYPE svg PUBLIC "-//W3C//DTD SVG 1.1//EN" "http://www.w3.org/Graphics/SVG/1.1/DTD/svg11.dtd"><svg width="100%" height="100%" viewBox="0 0 917 294" version="1.1" xmlns="http://www.w3.org/2000/svg" xmlns:xlink="http://www.w3.org/1999/xlink" xml:space="preserve" style="fill-rule:evenodd;clip-rule:evenodd;stroke-linejoin:round;stroke-miterlimit:1.41421;"><path d="M417.712,164.972c3.509,0 6.583,-1.011 9.217,-3.044c2.633,-2.026 4.549,-4.744 5.761,-8.15l25.842,9.547c-1.536,3.956 -3.569,7.631 -6.093,11.028c-2.523,3.405 -5.565,6.339 -9.137,8.807c-3.563,2.473 -7.544,4.391 -11.927,5.761c-4.391,1.372 -9.114,2.059 -14.158,2.059c-6.362,0 -12.182,-1.128 -17.447,-3.374c-5.267,-2.248 -9.822,-5.291 -13.662,-9.137c-3.847,-3.839 -6.834,-8.364 -8.971,-13.577c-2.143,-5.21 -3.209,-10.784 -3.209,-16.711c0,-5.922 1.066,-11.494 3.209,-16.706c2.137,-5.211 5.124,-9.768 8.971,-13.661c3.84,-3.895 8.421,-6.969 13.742,-9.217c5.32,-2.246 11.114,-3.374 17.367,-3.374c5.044,0 9.767,0.687 14.158,2.057c4.383,1.372 8.333,3.319 11.849,5.843c3.509,2.523 6.557,5.542 9.135,9.051c2.578,3.514 4.583,7.355 6.009,11.525l-25.512,8.726c-0.991,-3.515 -2.884,-6.259 -5.683,-8.23c-2.798,-1.979 -5.952,-2.964 -9.461,-2.964c-4.611,0 -8.45,1.592 -11.525,4.769c-3.074,3.185 -4.612,7.246 -4.612,12.181c0,4.832 1.538,8.837 4.612,12.02c3.075,3.185 6.914,4.771 11.525,4.771m98.678,-28.886c-3.019,-3.239 -6.834,-4.855 -11.439,-4.855c-4.612,0 -8.396,1.616 -11.36,4.855c-2.965,3.24 -4.446,7.269 -4.446,12.095c0,4.832 1.481,8.837 4.446,12.02c2.964,3.185 6.748,4.771 11.36,4.771c4.605,0 8.42,-1.586 11.439,-4.771c3.019,-3.183 4.526,-7.188 4.526,-12.02c0,-4.826 -1.507,-8.855 -4.526,-12.095m19.669,42.383c-3.84,3.846 -8.42,6.889 -13.742,9.137c-5.328,2.246 -11.114,3.374 -17.366,3.374c-6.259,0 -12.045,-1.128 -17.367,-3.374c-5.322,-2.248 -9.902,-5.291 -13.748,-9.137c-3.839,-3.839 -6.829,-8.364 -8.966,-13.577c-2.142,-5.21 -3.214,-10.784 -3.214,-16.711c0,-5.922 1.072,-11.494 3.214,-16.706c2.137,-5.211 5.127,-9.736 8.966,-13.575c3.846,-3.846 8.426,-6.891 13.748,-9.137c5.322,-2.248 11.108,-3.374 17.367,-3.374c6.141,0 11.849,1.126 17.116,3.374c5.265,2.246 9.845,5.291 13.747,9.137c3.895,3.839 6.939,8.364 9.136,13.575c2.192,5.212 3.289,10.784 3.289,16.706c0,5.927 -1.066,11.501 -3.208,16.711c-2.137,5.213 -5.133,9.738 -8.972,13.577m72.339,-42.633c-3.019,-3.288 -6.883,-4.935 -11.604,-4.935c-4.715,0 -8.641,1.622 -11.764,4.855c-3.13,3.24 -4.697,7.324 -4.697,12.265c0,4.936 1.567,9.026 4.697,12.26c3.123,3.239 7.049,4.857 11.764,4.857c4.721,0 8.585,-1.647 11.604,-4.937c3.019,-3.294 4.531,-7.353 4.531,-12.18c0,-4.831 -1.512,-8.891 -4.531,-12.185m20.826,81.561c-3.514,3.681 -7.899,6.589 -13.17,8.726c-5.268,2.144 -11.466,3.21 -18.598,3.21c-10.209,0 -18.904,-2.137 -26.088,-6.419c-7.189,-4.279 -12.761,-9.767 -16.711,-16.461l26.993,-12.509c1.536,3.183 3.595,5.706 6.179,7.574c2.572,1.862 5.78,2.799 9.627,2.799c4.611,0 8.149,-1.458 10.618,-4.366c2.467,-2.91 3.704,-6.774 3.704,-11.606l0,-8.229c-2.418,3.515 -5.492,6.204 -9.221,8.065c-3.729,1.868 -8.066,2.799 -13.001,2.799c-4.723,0 -9.277,-0.962 -13.662,-2.879c-4.391,-1.922 -8.316,-4.714 -11.77,-8.395c-3.46,-3.675 -6.227,-8.175 -8.315,-13.497c-2.083,-5.321 -3.125,-11.328 -3.125,-18.028c0,-6.584 1.042,-12.536 3.125,-17.858c2.088,-5.32 4.855,-9.822 8.315,-13.494c3.454,-3.675 7.433,-6.505 11.935,-8.484c4.495,-1.971 9.161,-2.956 13.987,-2.956c5.156,0 9.521,0.985 13.087,2.956c3.563,1.979 6.502,4.612 8.805,7.908l0,-9.223l27.655,0l0,80.82c0,5.928 -0.851,11.414 -2.549,16.467c-1.702,5.046 -4.311,9.406 -7.82,13.08m67.649,-74.483c0,-4.279 -0.876,-7.568 -2.632,-9.876c-1.759,-2.303 -4.446,-3.454 -8.066,-3.454c-3.185,0 -5.817,1.18 -7.9,3.54c-2.088,2.357 -3.128,6.006 -3.128,10.942l0,45.267l-27.986,0l0,-82.303l27.82,0l0,9.223c2.524,-3.405 5.566,-6.063 9.137,-7.986c3.564,-1.916 7.599,-2.878 12.099,-2.878c8.888,0 15.966,2.744 21.233,8.229c5.265,5.488 7.9,13.222 7.9,23.21l0,52.505l-28.477,0l0,-46.419Zm36.05,-70.287l28.475,0l0,28.806l-28.475,0l0,-28.806Zm0,34.403l28.475,0l0,82.303l-28.475,0l0,-82.303Zm66.744,80.496c-4.551,-1.206 -8.177,-3.294 -10.864,-6.259c-2.689,-2.964 -4.551,-6.914 -5.597,-11.849c-1.042,-4.936 -1.561,-11.085 -1.561,-18.438l0,-19.583l-13.497,0l0,-24.367l13.497,0l0,-19.259l27.984,-14.978l0,34.237l14.978,0l0,24.367l-14.978,0l0,17.942c0,3.288 0.135,5.866 0.41,7.734c0.269,1.867 0.907,3.264 1.893,4.195c0.985,0.937 2.467,1.513 4.445,1.733c1.972,0.221 4.715,0.324 8.23,0.324l0,26.008l-7.74,0c-6.914,0 -12.645,-0.601 -17.2,-1.807m85.099,-51.44c-3.017,-3.239 -6.826,-4.855 -11.438,-4.855c-4.605,0 -8.395,1.616 -11.359,4.855c-2.959,3.24 -4.44,7.269 -4.44,12.095c0,4.832 1.481,8.837 4.44,12.02c2.964,3.185 6.754,4.771 11.359,4.771c4.612,0 8.421,-1.586 11.438,-4.771c3.021,-3.183 4.526,-7.188 4.526,-12.02c0,-4.826 -1.505,-8.855 -4.526,-12.095m28.642,28.806c-2.137,5.213 -5.126,9.738 -8.971,13.577c-3.84,3.846 -8.421,6.889 -13.742,9.137c-5.322,2.246 -11.108,3.374 -17.367,3.374c-6.252,0 -12.044,-1.128 -17.366,-3.374c-5.322,-2.248 -9.902,-5.291 -13.743,-9.137c-3.846,-3.839 -6.834,-8.364 -8.971,-13.577c-2.143,-5.21 -3.208,-10.784 -3.208,-16.711c0,-5.922 1.065,-11.494 3.208,-16.706c2.137,-5.211 5.125,-9.736 8.971,-13.575c3.841,-3.846 8.421,-6.891 13.743,-9.137c5.322,-2.248 11.114,-3.374 17.366,-3.374c6.147,0 11.856,1.126 17.121,3.374c5.267,2.246 9.847,5.291 13.742,9.137c3.896,3.839 6.938,8.364 9.137,13.575c2.192,5.212 3.294,10.784 3.294,16.706c0,5.927 -1.071,11.501 -3.214,16.711" style="fill:#fff;fill-rule:nonzero;"/><rect x="1.048" y="0" width="294.56" height="293.19" style="fill:#ffd028;fill-rule:nonzero;"/><path d="M235.327,107.372l-76.142,0c0,0 6.75,-8.169 10.763,-15.926c6.286,-12.154 3.598,-19.078 1.58,-22.782c-1.371,-2.514 -6.203,-1.524 -17.495,9.394c-19.251,18.616 -51.906,19.427 -83.864,36.326c-1.457,0.77 -3.167,1.196 -4.369,1.196c-1.202,0 -2.912,-0.424 -4.37,-1.196c-21.603,-11.423 -43.536,-15.499 -61.429,-22.691l0,123.175c17.14,-1.867 40.476,-7.679 60.666,-14.712c1.737,-0.605 3.211,-1.024 5.133,-1.024c1.692,0 3.395,0.419 5.132,1.024c24.621,8.579 53.903,15.345 70.936,15.345l30.802,0c4.403,0 12.478,-2.305 12.478,-13.831c0,-10.686 -7.866,-13.201 -12.687,-13.201l9.012,0c4.401,0 12.476,-2.307 12.476,-13.831c0,-10.688 -7.866,-13.202 -12.686,-13.202l8.801,0c4.401,0 12.476,-2.304 12.476,-13.83c0,-10.688 -7.867,-13.202 -12.685,-13.202l45.683,0c4.4,0 12.476,-2.305 12.476,-13.83c0,-10.689 -7.867,-13.202 -12.687,-13.202" style="fill:#fff;fill-rule:nonzero;"/><path d="M76.551,175.34c26.566,0 53.713,-0.225 74.163,-31.211c-19.066,0.937 -26.357,-3.421 -30.988,-4.822c-13.573,-4.108 -24.741,-1.881 -30.283,3.661c-10.074,10.074 -13.456,23.055 -12.892,32.372" style="fill:#ffd028;fill-rule:nonzero;"/><path d="M106.349,142.872c-6.273,0 -10.646,1.897 -12.876,4.127c-7.061,7.061 -10.246,15.591 -11.063,22.628c10.756,-0.076 21.661,-0.562 31.827,-3.716c9.837,-3.052 17.971,-8.278 25.026,-16.166c-9.537,-0.669 -15.163,-2.775 -18.924,-4.18c-0.89,-0.334 -1.659,-0.62 -2.264,-0.804c-4.432,-1.341 -8.354,-1.889 -11.726,-1.889m-29.798,38.168l-5.689,-5.355c-0.612,-10.117 2.887,-25.083 14.551,-36.747c7.562,-7.562 21.342,-9.51 35.964,-5.086c0.954,0.289 1.926,0.652 2.953,1.036c4.549,1.7 11.42,4.268 26.103,3.548l5.037,8.833c-22.286,33.771 -52.375,33.771 -78.919,33.771" style="fill:#063655;fill-rule:nonzero;"/><path d="M246.94,105.437c-4.284,-3.276 -9.114,-3.764 -11.614,-3.764l-64.868,0c1.587,-2.379 3.203,-5.004 4.551,-7.609c5.523,-10.677 6.021,-19.878 1.523,-28.129c-1.189,-2.176 -3.283,-3.641 -5.75,-4.018c-4.999,-0.761 -11.191,2.839 -20.711,12.045c-10.077,9.745 -24.628,14.277 -41.475,19.526c-12.664,3.944 -27.015,8.415 -41.089,15.856c-0.687,0.365 -1.456,0.529 -1.698,0.537c-0.26,-0.008 -1.028,-0.172 -1.713,-0.535c-14.08,-7.445 -28.442,-11.916 -41.113,-15.86c-8.307,-2.587 -16.053,-5.001 -22.983,-7.95l0,12.279c6.253,2.398 12.851,4.455 19.595,6.555c12.795,3.983 26.026,8.103 39.171,15.052c2.199,1.163 4.828,1.858 7.033,1.858c2.205,0 4.834,-0.695 7.035,-1.858c13.144,-6.949 26.365,-11.069 39.152,-15.052c17.475,-5.443 33.983,-10.585 46.008,-22.214c4.887,-4.723 7.955,-6.965 9.713,-8.021c0.816,2.809 0.956,7.387 -2.822,14.693c-2.525,4.879 -6.313,10.056 -8.46,12.845l-15.852,0l0,11.399l94.753,0c0.666,0 2.965,0.101 4.69,1.42c0.568,0.436 2.299,1.757 2.299,6.081c0,3.228 -0.81,5.5 -2.408,6.754c-1.628,1.279 -3.757,1.378 -4.37,1.378l-64.961,0l0,11.399l19.278,0c0.664,0 2.965,0.101 4.69,1.421c0.568,0.435 2.297,1.758 2.297,6.081c0,3.227 -0.81,5.499 -2.408,6.754c-1.628,1.278 -3.755,1.377 -4.37,1.377l-20.116,0l0,11.397l11.315,0c0.665,0 2.964,0.104 4.689,1.423c0.57,0.435 2.299,1.756 2.299,6.081c0,3.228 -0.81,5.499 -2.408,6.754c-1.627,1.278 -3.756,1.378 -4.369,1.378l-20.327,0l0,11.398l11.317,0c0.663,0 2.962,0.102 4.687,1.421c0.568,0.435 2.299,1.758 2.299,6.081c0,3.228 -0.81,5.499 -2.408,6.754c-1.628,1.278 -3.757,1.376 -4.37,1.376l-30.804,0c-15.265,0 -43.663,-6.178 -69.06,-15.025c-2.629,-0.917 -4.855,-1.342 -7.008,-1.342c-2.909,0 -5.144,0.693 -7.006,1.342c-20.457,7.125 -42.861,12.517 -58.793,14.346l0,11.481c18.916,-1.971 43.816,-8.54 62.544,-15.062c1.405,-0.49 2.207,-0.708 3.255,-0.708c0.836,0 1.87,0.224 3.257,0.708c22.378,7.794 53.569,15.659 72.811,15.659l30.804,0c2.448,0 7.186,-0.494 11.409,-3.81c3.087,-2.423 6.768,-7.119 6.768,-15.719c0,-3.708 -0.75,-6.668 -1.854,-9.018c1.292,-0.55 2.613,-1.294 3.887,-2.295c3.088,-2.424 6.768,-7.119 6.768,-15.719c0,-3.749 -0.765,-6.733 -1.889,-9.094c1.235,-0.543 2.496,-1.263 3.712,-2.219c3.087,-2.424 6.768,-7.119 6.768,-15.719c0,-2.953 -0.475,-5.43 -1.224,-7.502l28.521,0c2.447,0 7.186,-0.496 11.409,-3.811c3.087,-2.424 6.768,-7.117 6.768,-15.72c0,-8.229 -3.683,-12.772 -6.774,-15.136" style="fill:#063655;fill-rule:nonzero;"/><path d="M42.12,142.49c-5.543,-5.542 -16.711,-7.769 -30.284,-3.661c-2.585,0.783 -6.005,2.486 -11.836,3.677l0,20.98c16.879,11.259 36.092,11.374 55.013,11.374c0.562,-9.315 -2.82,-22.296 -12.893,-32.37" style="fill:#ffd028;fill-rule:nonzero;"/><path d="M46.149,138.46c-7.562,-7.562 -21.343,-9.51 -35.964,-5.086c-0.954,0.289 -1.924,0.652 -2.953,1.036c-1.881,0.705 -4.164,1.556 -7.232,2.262l0,11.639c5.097,-0.935 8.614,-2.248 11.225,-3.224c0.89,-0.332 1.657,-0.621 2.262,-0.802c12.673,-3.835 21.174,-1.194 24.602,2.234c7.061,7.063 10.246,15.591 11.064,22.628c-10.757,-0.074 -21.662,-0.56 -31.828,-3.714c-6.449,-2.002 -12.163,-4.945 -17.325,-8.953l0,13.748c17.632,10.33 37.125,10.331 55.013,10.331l5.689,-5.354c0.612,-10.117 -2.889,-25.081 -14.553,-36.745" style="fill:#063655;fill-rule:nonzero;"/></svg>